<svg width="209" height="127" viewBox="0 0 209 127" fill="none" xmlns="http://www.w3.org/2000/svg">
<g clip-path="url(#clip0_443_1172)">
<path d="M25.1397 126.167L24.7827 126.087C28.7635 108.476 38.7675 92.4829 52.9518 81.0547C63.6757 72.428 76.4301 66.6584 90.0141 64.2892C103.598 61.92 117.565 63.0291 130.599 67.5121C143.633 71.9951 155.306 79.7045 164.518 89.9144C173.731 100.124 180.18 112.499 183.258 125.873L182.901 125.953C174.475 89.1451 142.048 63.4377 104.045 63.4377C66.5399 63.4377 33.3555 89.8193 25.1397 126.167Z" fill="#3F3D56"/>
<path d="M76.3246 22.5206C81.8134 22.5206 86.2629 18.094 86.2629 12.6336C86.2629 7.17315 81.8134 2.74658 76.3246 2.74658C70.8359 2.74658 66.3864 7.17315 66.3864 12.6336C66.3864 18.094 70.8359 22.5206 76.3246 22.5206Z" fill="#FF6584"/>
<path d="M33.5085 123.921C33.8185 125.061 34.8801 125.767 34.8801 125.767C34.8801 125.767 35.4392 124.625 35.1293 123.485C34.8193 122.345 33.7577 121.639 33.7577 121.639C33.7577 121.639 33.1986 122.782 33.5085 123.921Z" fill="#3F3D56"/>
<path d="M33.9638 123.676C34.8143 124.5 34.9182 125.766 34.9182 125.766C34.9182 125.766 33.6432 125.697 32.7926 124.873C31.9421 124.05 31.8383 122.784 31.8383 122.784C31.8383 122.784 33.1133 122.853 33.9638 123.676Z" fill="#57B894"/>
<path d="M57.1122 123.921C57.4221 125.061 58.4837 125.767 58.4837 125.767C58.4837 125.767 59.0429 124.625 58.7329 123.485C58.423 122.345 57.3613 121.639 57.3613 121.639C57.3613 121.639 56.8022 122.782 57.1122 123.921Z" fill="#3F3D56"/>
<path d="M57.5676 123.676C58.4181 124.5 58.522 125.766 58.522 125.766C58.522 125.766 57.2469 125.697 56.3964 124.873C55.5459 124.05 55.442 122.784 55.442 122.784C55.442 122.784 56.7171 122.853 57.5676 123.676Z" fill="#57B894"/>
<path d="M61.7925 33.1271L58.0554 30.1527L78.9829 11.564H132.049V27.9221L97.6681 50.9723L61.7925 33.1271Z" fill="#3F3D56"/>
<path d="M141.723 21.9912V11.9353H134.678V14.398L132.048 11.564L114.858 30.1527L108.131 34.6141L97.7013 110.423L113.431 126.071H149.986V30.8963L141.723 21.9912Z" fill="#CCCCCC"/>
<path d="M114.859 30.1533H58.0559V126.072H114.859V30.1533Z" fill="#F38630"/>
<path d="M90.5676 102.649H80.1039V126.071H90.5676V102.649Z" fill="#CCCCCC"/>
<path d="M68.8926 109.342V105.624H64.4082V109.342H68.5189H68.8926Z" fill="#3F3D56"/>
<path d="M68.5189 112.316H64.4082V116.033H68.8926V112.316H68.5189Z" fill="#3F3D56"/>
<path d="M76.3664 105.624H71.882V109.342H76.3664V105.624Z" fill="#3F3D56"/>
<path d="M76.3664 112.316H71.882V116.034H76.3664V112.316Z" fill="#3F3D56"/>
<path d="M99.5367 109.342V105.624H95.0524V109.342H99.1631H99.5367Z" fill="#3F3D56"/>
<path d="M99.1631 112.316H95.0524V116.033H99.5367V112.316H99.1631Z" fill="#3F3D56"/>
<path d="M107.011 105.624H102.526V109.342H107.011V105.624Z" fill="#3F3D56"/>
<path d="M107.011 112.316H102.526V116.034H107.011V112.316Z" fill="#3F3D56"/>
<path d="M130.928 34.9862V31.2686H126.443V34.9862H130.554H130.928Z" fill="#3F3D56"/>
<path d="M130.554 37.9604H126.443V41.678H130.928V37.9604H130.554Z" fill="#3F3D56"/>
<path d="M138.402 31.2683H133.918V34.9861H138.402V31.2683Z" fill="#3F3D56"/>
<path d="M138.402 37.9602H133.918V41.678H138.402V37.9602Z" fill="#3F3D56"/>
<path d="M130.928 55.8057V52.0879H126.443V55.8057H130.554H130.928Z" fill="#3F3D56"/>
<path d="M130.554 58.7798H126.443V62.4976H130.928V58.7798H130.554Z" fill="#3F3D56"/>
<path d="M138.402 52.0879H133.918V55.8057H138.402V52.0879Z" fill="#3F3D56"/>
<path d="M138.402 58.7798H133.918V62.4976H138.402V58.7798Z" fill="#3F3D56"/>
<path d="M130.928 76.6251V72.9073H126.443V76.6251H130.554H130.928Z" fill="#3F3D56"/>
<path d="M130.554 79.5992H126.443V83.317H130.928V79.5992H130.554Z" fill="#3F3D56"/>
<path d="M138.402 72.9073H133.918V76.6251H138.402V72.9073Z" fill="#3F3D56"/>
<path d="M138.402 79.5992H133.918V83.317H138.402V79.5992Z" fill="#3F3D56"/>
<path d="M130.928 97.4446V93.7268H126.443V97.4446H130.554H130.928Z" fill="#3F3D56"/>
<path d="M130.554 100.419H126.443V104.137H130.928V100.419H130.554Z" fill="#3F3D56"/>
<path d="M138.402 93.7268H133.918V97.4446H138.402V93.7268Z" fill="#3F3D56"/>
<path d="M138.402 100.419H133.918V104.137H138.402V100.419Z" fill="#3F3D56"/>
<path d="M107.758 34.9861H64.4082V43.9087H107.758V34.9861Z" fill="#3F3D56"/>
<path d="M107.758 52.8315H64.4082V61.7542H107.758V52.8315Z" fill="#3F3D56"/>
<path d="M107.758 70.6768H64.4082V79.5994H107.758V70.6768Z" fill="#3F3D56"/>
<path d="M107.758 88.522H64.4082V97.4446H107.758V88.522Z" fill="#3F3D56"/>
<path d="M208.042 125.697H0.00012207V126.061H208.042V125.697Z" fill="#3F3D56"/>
<path d="M35.9142 83.6639H34.8392V125.905H35.9142V83.6639Z" fill="#3F3D56"/>
<path d="M45.8341 89.047C45.9025 103.818 35.4568 115.84 35.4568 115.84C35.4568 115.84 24.9001 103.914 24.8316 89.1433C24.7632 74.3727 35.209 62.3507 35.209 62.3507C35.209 62.3507 45.7657 74.2765 45.8341 89.047Z" fill="#57B894"/>
<path opacity="0.1" d="M45.8341 89.047C45.9025 103.818 35.4568 115.84 35.4568 115.84C35.4568 115.84 24.9001 103.914 24.8316 89.1433C24.7632 74.3727 35.209 62.3507 35.209 62.3507C35.209 62.3507 45.7657 74.2765 45.8341 89.047Z" fill="black"/>
<path d="M21.9402 83.6639H20.8652V125.905H21.9402V83.6639Z" fill="#3F3D56"/>
<path d="M31.8601 89.047C31.9285 103.818 21.4828 115.84 21.4828 115.84C21.4828 115.84 10.9261 103.914 10.8576 89.1433C10.7892 74.3727 21.235 62.3507 21.235 62.3507C21.235 62.3507 31.7917 74.2765 31.8601 89.047Z" fill="#57B894"/>
<path d="M173.013 30.0933C164.545 30.1322 157.653 30.2566 157.653 30.2566C157.653 30.2566 165.846 19.4609 172.982 23.4606C180.118 27.4604 188.316 30.116 188.316 30.116C188.316 30.116 181.48 30.0545 173.013 30.0933Z" fill="#F38630"/>
<path d="M31.9398 50.8446C23.4724 50.8834 16.5802 51.0078 16.5802 51.0078C16.5802 51.0078 24.7726 40.2121 31.9091 44.2118C39.0456 48.2116 47.2436 50.8672 47.2436 50.8672C47.2436 50.8672 40.4073 50.8057 31.9398 50.8446Z" fill="#F38630"/>
<path d="M62.679 7.52155C54.2115 7.56038 47.3193 7.68483 47.3193 7.68483C47.3193 7.68483 55.5118 -3.11089 62.6482 0.888848C69.7847 4.88859 77.9827 7.54424 77.9827 7.54424C77.9827 7.54424 71.1464 7.48273 62.679 7.52155Z" fill="#F38630"/>
<path d="M190.46 83.6639H189.385V125.905H190.46V83.6639Z" fill="#3F3D56"/>
<path d="M200.38 89.047C200.449 103.818 190.003 115.84 190.003 115.84C190.003 115.84 179.446 103.914 179.378 89.1433C179.309 74.3727 189.755 62.3507 189.755 62.3507C189.755 62.3507 200.312 74.2765 200.38 89.047Z" fill="#57B894"/>
<path d="M150.893 99.6851H161.742V97.0801H167.727V99.6851H178.949V111.222H167.727V125.736H161.742V111.222H150.893L145.282 104.895L150.893 99.6851Z" fill="#3F3D56"/>
</g>
<defs>
<clipPath id="clip0_443_1172">
<rect width="208.042" height="126.167" fill="white"/>
</clipPath>
</defs>
</svg>
